<?xml version="1.0" encoding="UTF-8" standalone="no"?>
<!-- Created with Inkscape (http://www.inkscape.org/) -->

<svg
  xmlns:dc="http://purl.org/dc/elements/1.1/"
  xmlns:cc="http://creativecommons.org/ns#"
  xmlns:rdf="http://www.w3.org/1999/02/22-rdf-syntax-ns#"
  xmlns="http://www.w3.org/2000/svg"
  xmlns:xlink="http://www.w3.org/1999/xlink"
  xmlns:sodipodi="http://sodipodi.sourceforge.net/DTD/sodipodi-0.dtd"
  xmlns:inkscape="http://www.inkscape.org/namespaces/inkscape"
  width="512"
  height="512"
  viewBox="0 0 135.46667 135.46667"
  version="1.1"
  id="svg4066"
  sodipodi:docname="coverArt.svg"
  inkscape:version="0.92.3 (2405546, 2018-03-11)"
  enable-background="new">
  <defs
    id="defs4060">
    <linearGradient
      inkscape:collect="always"
      id="linearGradient7799">
      <stop
        style="stop-color:#2773e7;stop-opacity:1;"
        offset="0"
        id="stop7795"/>
      <stop
        style="stop-color:#2773e7;stop-opacity:0;"
        offset="1"
        id="stop7797"/>
    </linearGradient>
    <linearGradient
      inkscape:collect="always"
      xlink:href="#linearGradient1292"
      id="linearGradient1294"
      x1="363.69806"
      y1="26.224049"
      x2="412.3815"
      y2="-18.52586"
      gradientUnits="userSpaceOnUse"
      gradientTransform="translate(-312.02366,71.666196)"/>
    <linearGradient
      inkscape:collect="always"
      id="linearGradient1292">
      <stop
        style="stop-color:#00aad4;stop-opacity:1"
        offset="0"
        id="stop1288"/>
      <stop
        id="stop1298"
        offset="0.23076864"
        style="stop-color:#00ccff;stop-opacity:1"/>
      <stop
        style="stop-color:#e580ff;stop-opacity:1"
        offset="1"
        id="stop1290"/>
    </linearGradient>
    <linearGradient
      inkscape:collect="always"
      id="linearGradient1438">
      <stop
        style="stop-color:#000000;stop-opacity:1;"
        offset="0"
        id="stop1434"/>
      <stop
        style="stop-color:#000000;stop-opacity:0;"
        offset="1"
        id="stop1436"/>
    </linearGradient>
    <linearGradient
      inkscape:collect="always"
      id="linearGradient937">
      <stop
        style="stop-color:#333333;stop-opacity:1"
        offset="0"
        id="stop933"/>
      <stop
        style="stop-color:#000000;stop-opacity:1"
        offset="1"
        id="stop935"/>
    </linearGradient>
    <linearGradient
      inkscape:collect="always"
      id="linearGradient945">
      <stop
        style="stop-color:#1a1a1a;stop-opacity:1"
        offset="0"
        id="stop941"/>
      <stop
        style="stop-color:#4d4d4d;stop-opacity:1"
        offset="1"
        id="stop943"/>
    </linearGradient>
    <clipPath
      clipPathUnits="userSpaceOnUse"
      id="clipPath7692">
      <use
        x="0"
        y="0"
        xlink:href="#g7688"
        id="use7694"
        width="100%"
        height="100%"/>
    </clipPath>
    <radialGradient
      inkscape:collect="always"
      xlink:href="#linearGradient937"
      id="radialGradient7760"
      gradientUnits="userSpaceOnUse"
      gradientTransform="matrix(0.77676936,0.62068967,-0.62424983,0.78122477,91.749131,-39.763858)"
      cx="102.89877"
      cy="110.1786"
      fx="102.89877"
      fy="110.1786"
      r="73.632759"/>
    <linearGradient
      inkscape:collect="always"
      xlink:href="#linearGradient945"
      id="linearGradient7762"
      gradientUnits="userSpaceOnUse"
      x1="312.13712"
      y1="603.30127"
      x2="592.95953"
      y2="444.70734"/>
    <linearGradient
      inkscape:collect="always"
      xlink:href="#linearGradient945"
      id="linearGradient7764"
      gradientUnits="userSpaceOnUse"
      gradientTransform="matrix(0.22594999,0,0,0.22594999,15.434625,16.068302)"
      x1="312.13712"
      y1="603.30127"
      x2="592.95953"
      y2="444.70734"/>
    <linearGradient
      inkscape:collect="always"
      xlink:href="#linearGradient945"
      id="linearGradient7766"
      gradientUnits="userSpaceOnUse"
      gradientTransform="matrix(0.19233565,0,0,0.19233565,28.864074,30.04911)"
      x1="312.13712"
      y1="603.30127"
      x2="592.95953"
      y2="444.70734"/>
    <linearGradient
      inkscape:collect="always"
      xlink:href="#linearGradient945"
      id="linearGradient7768"
      gradientUnits="userSpaceOnUse"
      gradientTransform="matrix(0.16402236,0,0,0.16402236,40.175681,41.825115)"
      x1="312.13712"
      y1="603.30127"
      x2="592.95953"
      y2="444.70734"/>
    <linearGradient
      inkscape:collect="always"
      xlink:href="#linearGradient945"
      id="linearGradient7770"
      gradientUnits="userSpaceOnUse"
      gradientTransform="matrix(0.13961436,0,0,0.13961436,49.927058,51.97684)"
      x1="312.13712"
      y1="603.30127"
      x2="592.95953"
      y2="444.70734"/>
    <linearGradient
      inkscape:collect="always"
      xlink:href="#linearGradient7799"
      id="linearGradient7801"
      x1="35.667694"
      y1="79.621063"
      x2="101.26649"
      y2="79.621063"
      gradientUnits="userSpaceOnUse"/>
    <linearGradient
      inkscape:collect="always"
      xlink:href="#linearGradient1438"
      id="linearGradient8139"
      gradientUnits="userSpaceOnUse"
      gradientTransform="translate(-76.86877,-62.459922)"
      x1="145.12064"
      y1="215.66586"
      x2="145.30223"
      y2="142.1339"/>
  </defs>
  <sodipodi:namedview
    id="base"
    pagecolor="#ffffff"
    bordercolor="#666666"
    borderopacity="1.0"
    inkscape:pageopacity="0.0"
    inkscape:pageshadow="2"
    inkscape:zoom="0.98994949"
    inkscape:cx="104.36634"
    inkscape:cy="248.77669"
    inkscape:document-units="mm"
    inkscape:current-layer="g1015-5-4"
    showgrid="false"
    units="px"
    width="512px"
    inkscape:window-width="1920"
    inkscape:window-height="1080"
    inkscape:window-x="1366"
    inkscape:window-y="0"
    inkscape:window-maximized="1"
    fit-margin-top="0"
    fit-margin-left="0"
    fit-margin-right="0"
    fit-margin-bottom="0"
    showguides="true"
    inkscape:lockguides="false">
    <inkscape:grid
      type="xygrid"
      id="grid7459"/>
  </sodipodi:namedview>
  <metadata
    id="metadata4063">
    <rdf:RDF>
      <cc:Work
        rdf:about="">
        <dc:format>image/svg+xml</dc:format>
        <dc:type
          rdf:resource="http://purl.org/dc/dcmitype/StillImage"/>
        <dc:title></dc:title>
      </cc:Work>
    </rdf:RDF>
  </metadata>
  <g
    inkscape:label="MainLayer"
    inkscape:groupmode="layer"
    id="layer1"
    transform="translate(-0.73376465,-11.887733)"
    style="display:inline">
    <g
      id="MainGroup"
      clip-path="url(#clipPath7692)"
      transform="matrix(0.91988032,0,0,0.91988032,5.4855653,6.3792101)"
      style="display:inline"
      inkscape:label="MainGroup">
      <g
        inkscape:label="MainClip"
        id="g7688"
        style="display:inline">
        <g
          inkscape:export-ydpi="85.171089"
          inkscape:export-xdpi="85.171089"
          clip-path="none"
          transform="translate(-37.238,-30.423882)"
          id="g1015-5-4"
          style="display:inline"
          inkscape:label="VinylTracks">
          <ellipse
            style="display:inline;fill:url(#radialGradient7760);fill-opacity:1;stroke:none;stroke-width:0.15521127;stroke-linecap:round;stroke-miterlimit:4;stroke-dasharray:none;stroke-opacity:1"
            id="path817-54-4"
            cx="105.7051"
            cy="110.04495"
            r="73.632759"
            inkscape:label="Background"/>
          <path
            inkscape:connector-curvature="0"
            style="color:#000000;font-style:normal;font-variant:normal;font-weight:normal;font-stretch:normal;font-size:medium;line-height:normal;font-family:sans-serif;font-variant-ligatures:normal;font-variant-position:normal;font-variant-caps:normal;font-variant-numeric:normal;font-variant-alternates:normal;font-feature-settings:normal;text-indent:0;text-align:start;text-decoration:none;text-decoration-line:none;text-decoration-style:solid;text-decoration-color:#000000;letter-spacing:normal;word-spacing:normal;text-transform:none;writing-mode:lr-tb;direction:ltr;text-orientation:mixed;dominant-baseline:auto;baseline-shift:baseline;text-anchor:start;white-space:normal;shape-padding:0;clip-rule:nonzero;display:inline;overflow:visible;visibility:visible;opacity:1;isolation:auto;mix-blend-mode:normal;color-interpolation:sRGB;color-interpolation-filters:linearRGB;solid-color:#000000;solid-opacity:1;vector-effect:none;fill:url(#linearGradient7762);fill-opacity:1;fill-rule:nonzero;stroke:none;stroke-width:3.38134551;stroke-linecap:round;stroke-linejoin:miter;stroke-miterlimit:4;stroke-dasharray:none;stroke-dashoffset:0;stroke-opacity:1;color-rendering:auto;image-rendering:auto;shape-rendering:auto;text-rendering:auto;enable-background:accumulate"
            d="m 399.51562,142.16602 c -151.16784,0 -273.75195,122.58413 -273.75195,273.75195 0,151.1678 122.58411,273.75195 273.75195,273.75195 151.1678,0 273.75196,-122.58415 273.75196,-273.75195 0,-151.16782 -122.58416,-273.75195 -273.75196,-273.75195 z m 0,3.38476 c 149.3404,0 270.36719,121.02678 270.36719,270.36719 0,149.3404 -121.02679,270.36719 -270.36719,270.36719 -149.34042,0 -270.36718,-121.02679 -270.36718,-270.36719 0,-149.34041 121.02676,-270.36719 270.36718,-270.36719 z m 0,4.69727 c -146.70532,0 -265.66992,118.96462 -265.66992,265.66992 0,146.70523 118.9646,265.66992 265.66992,265.66992 146.70532,0 265.66993,-118.96469 265.66993,-265.66992 0,-146.7053 -118.96465,-265.66992 -265.66993,-265.66992 z m 0,3.2832 c 144.93185,0 262.38477,117.45489 262.38477,262.38672 0,144.9318 -117.45288,262.38476 -262.38477,262.38476 -144.93184,0 -262.38671,-117.45296 -262.38671,-262.38476 0,-144.93183 117.45487,-262.38672 262.38671,-262.38672 z m 0,5.05078 c -142.10257,0 -257.33593,115.2334 -257.33593,257.33594 0,142.10249 115.23336,257.33398 257.33593,257.33398 142.10253,0 257.33399,-115.23149 257.33399,-257.33398 0,-142.10254 -115.23146,-257.33594 -257.33399,-257.33594 z m 0,3.18164 c 140.38474,0 254.15235,113.76958 254.15235,254.1543 0,140.38469 -113.76761,254.1543 -254.15235,254.1543 -140.38472,0 -254.15429,-113.76961 -254.15429,-254.1543 0,-140.38472 113.76957,-254.1543 254.15429,-254.1543 z m 0,5.65625 c -137.22246,0 -248.49804,111.27559 -248.49804,248.49805 0,137.2224 111.27558,248.49805 248.49804,248.49805 137.22244,0 248.49805,-111.27565 248.49805,-248.49805 0,-137.22246 -111.27561,-248.49805 -248.49805,-248.49805 z m 0,3.07227 c 135.56361,0 245.42579,109.86215 245.42579,245.42578 0,135.56356 -109.86218,245.42578 -245.42579,245.42578 -135.56364,0 -245.42578,-109.86222 -245.42578,-245.42578 0,-135.56363 109.86214,-245.42578 245.42578,-245.42578 z m 0,5.00976 c -132.75993,0 -240.41601,107.65609 -240.41601,240.41602 0,132.75991 107.65608,240.41601 240.41601,240.41601 132.75992,0 240.41602,-107.6561 240.41602,-240.41601 0,-132.75993 -107.6561,-240.41602 -240.41602,-240.41602 z m 0,2.97266 c 131.15505,0 237.44336,106.2883 237.44336,237.44336 0,131.15505 -106.28831,237.44336 -237.44336,237.44336 -131.15506,0 -237.44531,-106.28831 -237.44531,-237.44336 0,-131.15506 106.29025,-237.44336 237.44531,-237.44336 z"
            id="path817-3-00-63-1"
            inkscape:label="Track5"
            transform="scale(0.26458333)"/>
          <path
            inkscape:connector-curvature="0"
            style="color:#000000;font-style:normal;font-variant:normal;font-weight:normal;font-stretch:normal;font-size:medium;line-height:normal;font-family:sans-serif;font-variant-ligatures:normal;font-variant-position:normal;font-variant-caps:normal;font-variant-numeric:normal;font-variant-alternates:normal;font-feature-settings:normal;text-indent:0;text-align:start;text-decoration:none;text-decoration-line:none;text-decoration-style:solid;text-decoration-color:#000000;letter-spacing:normal;word-spacing:normal;text-transform:none;writing-mode:lr-tb;direction:ltr;text-orientation:mixed;dominant-baseline:auto;baseline-shift:baseline;text-anchor:start;white-space:normal;shape-padding:0;clip-rule:nonzero;display:inline;overflow:visible;visibility:visible;opacity:1;isolation:auto;mix-blend-mode:normal;color-interpolation:sRGB;color-interpolation-filters:linearRGB;solid-color:#000000;solid-opacity:1;vector-effect:none;fill:url(#linearGradient7764);fill-opacity:1;fill-rule:nonzero;stroke:none;stroke-width:0.76401496;stroke-linecap:round;stroke-linejoin:miter;stroke-miterlimit:4;stroke-dasharray:none;stroke-dashoffset:0;stroke-opacity:1;color-rendering:auto;image-rendering:auto;shape-rendering:auto;text-rendering:auto;enable-background:accumulate"
            d="m 105.70517,48.190713 c -34.156368,0 -61.854243,27.697882 -61.854243,61.854247 0,34.15636 27.697875,61.85426 61.854243,61.85426 34.15636,0 61.85426,-27.6979 61.85426,-61.85426 0,-34.156365 -27.6979,-61.854247 -61.85426,-61.854247 z m 0,0.764786 c 33.74347,0 61.08948,27.346 61.08948,61.089461 0,33.74347 -27.34601,61.08948 -61.08948,61.08948 -33.743458,0 -61.089458,-27.34601 -61.089458,-61.08948 0,-33.743461 27.346,-61.089461 61.089458,-61.089461 z m 0,1.061348 c -33.14806,0 -60.028109,26.880054 -60.028109,60.028113 0,33.14805 26.880049,60.02812 60.028109,60.02812 33.14807,0 60.02812,-26.88007 60.02812,-60.02812 0,-33.148059 -26.88005,-60.028113 -60.02812,-60.028113 z m 0,0.741838 c 32.74736,0 59.28584,26.538933 59.28584,59.286275 0,32.74734 -26.53847,59.28584 -59.28584,59.28584 -32.747345,0 -59.286271,-26.5385 -59.286271,-59.28584 0,-32.747342 26.538926,-59.286275 59.286271,-59.286275 z m 0,1.141224 c -32.108069,0 -58.145049,26.036987 -58.145049,58.145051 0,32.10805 26.03698,58.14462 58.145049,58.14462 32.10806,0 58.14462,-26.03657 58.14462,-58.14462 0,-32.108064 -26.03656,-58.145051 -58.14462,-58.145051 z m 0,0.718892 c 31.71994,0 57.42573,25.706235 57.42573,57.426159 0,31.71992 -25.70579,57.42617 -57.42573,57.42617 -31.719925,0 -57.426156,-25.70625 -57.426156,-57.42617 0,-31.719924 25.706231,-57.426159 57.426156,-57.426159 z m 0,1.27803 c -31.005405,0 -56.148126,25.142719 -56.148126,56.148129 0,31.0054 25.142721,56.14814 56.148126,56.14814 31.00541,0 56.14814,-25.14274 56.14814,-56.14814 0,-31.00541 -25.14273,-56.148129 -56.14814,-56.148129 z m 0,0.694179 c 30.63061,0 55.45397,24.823352 55.45397,55.45395 0,30.63059 -24.82336,55.45396 -55.45397,55.45396 -30.630599,0 -55.453948,-24.82337 -55.453948,-55.45396 0,-30.630598 24.823349,-55.45395 55.453948,-55.45395 z m 0,1.131955 c -29.997097,0 -54.321992,24.324893 -54.321992,54.321995 0,29.9971 24.324895,54.322 54.321992,54.322 29.99711,0 54.32201,-24.3249 54.32201,-54.322 0,-29.997102 -24.3249,-54.321995 -54.32201,-54.321995 z m 0,0.671673 c 29.63448,0 53.65033,24.01584 53.65033,53.650322 0,29.63448 -24.01585,53.65033 -53.65033,53.65033 -29.634479,0 -53.65076,-24.01585 -53.65076,-53.65033 0,-29.634482 24.016281,-53.650322 53.65076,-53.650322 z"
            id="path817-3-00-2-3-5"
            inkscape:label="Track4"/>
          <path
            inkscape:connector-curvature="0"
            style="color:#000000;font-style:normal;font-variant:normal;font-weight:normal;font-stretch:normal;font-size:medium;line-height:normal;font-family:sans-serif;font-variant-ligatures:normal;font-variant-position:normal;font-variant-caps:normal;font-variant-numeric:normal;font-variant-alternates:normal;font-feature-settings:normal;text-indent:0;text-align:start;text-decoration:none;text-decoration-line:none;text-decoration-style:solid;text-decoration-color:#000000;letter-spacing:normal;word-spacing:normal;text-transform:none;writing-mode:lr-tb;direction:ltr;text-orientation:mixed;dominant-baseline:auto;baseline-shift:baseline;text-anchor:start;white-space:normal;shape-padding:0;clip-rule:nonzero;display:inline;overflow:visible;visibility:visible;opacity:1;isolation:auto;mix-blend-mode:normal;color-interpolation:sRGB;color-interpolation-filters:linearRGB;solid-color:#000000;solid-opacity:1;vector-effect:none;fill:url(#linearGradient7766);fill-opacity:1;fill-rule:nonzero;stroke:none;stroke-width:0.65035331;stroke-linecap:round;stroke-linejoin:miter;stroke-miterlimit:4;stroke-dasharray:none;stroke-dashoffset:0;stroke-opacity:1;color-rendering:auto;image-rendering:auto;shape-rendering:auto;text-rendering:auto;enable-background:accumulate"
            d="m 105.70517,57.392704 c -29.074961,0 -52.652254,23.577299 -52.652254,52.652266 0,29.07496 23.577293,52.65226 52.652254,52.65226 29.07496,0 52.65227,-23.5773 52.65227,-52.65226 0,-29.074967 -23.57731,-52.652266 -52.65227,-52.652266 z m 0,0.65101 c 28.72348,0 52.00126,23.277765 52.00126,52.001256 0,28.72348 -23.27778,52.00126 -52.00126,52.00126 -28.723486,0 -52.001245,-23.27778 -52.001245,-52.00126 0,-28.723491 23.277759,-52.001256 52.001245,-52.001256 z m 0,0.903452 c -28.216658,0 -51.097792,22.881138 -51.097792,51.097804 0,28.21665 22.881134,51.0978 51.097792,51.0978 28.21667,0 51.0978,-22.88115 51.0978,-51.0978 0,-28.216666 -22.88114,-51.097804 -51.0978,-51.097804 z m 0,0.631477 c 27.87557,0 50.46595,22.590763 50.46595,50.466327 0,27.87555 -22.59037,50.46595 -50.46595,50.46595 -27.875557,0 -50.466315,-22.5904 -50.466315,-50.46595 0,-27.875564 22.590758,-50.466327 50.466315,-50.466327 z m 0,0.971445 c -27.331386,0 -49.494872,22.163492 -49.494872,49.494882 0,27.33137 22.163486,49.4945 49.494872,49.4945 27.33138,0 49.49451,-22.16313 49.49451,-49.4945 0,-27.33139 -22.16313,-49.494882 -49.49451,-49.494882 z m 0,0.611943 c 27.001,0 48.88256,21.881946 48.88256,48.882939 0,27.00098 -21.88156,48.88294 -48.88256,48.88294 -27.000985,0 -48.882928,-21.88196 -48.882928,-48.88294 0,-27.000993 21.881943,-48.882939 48.882928,-48.882939 z m 0,1.087898 c -26.392771,0 -47.795029,21.402264 -47.795029,47.795041 0,26.39276 21.402258,47.79504 47.795029,47.79504 26.39277,0 47.79504,-21.40228 47.79504,-47.79504 0,-26.392777 -21.40227,-47.795041 -47.79504,-47.795041 z m 0,0.590907 c 26.07372,0 47.20414,21.130409 47.20414,47.204134 0,26.07371 -21.13042,47.20413 -47.20414,47.20413 -26.073718,0 -47.204123,-21.13042 -47.204123,-47.20413 0,-26.073725 21.130405,-47.204134 47.204123,-47.204134 z m 0,0.963556 c -25.534468,0 -46.240567,20.706105 -46.240567,46.240578 0,25.53446 20.706099,46.24057 46.240567,46.24057 25.53447,0 46.24058,-20.70611 46.24058,-46.24057 0,-25.534473 -20.70611,-46.240578 -46.24058,-46.240578 z m 0,0.571749 c 25.22579,0 45.66883,20.443029 45.66883,45.668829 0,25.22579 -20.44304,45.66883 -45.66883,45.66883 -25.225788,0 -45.669194,-20.44304 -45.669194,-45.66883 0,-25.2258 20.443406,-45.668829 45.669194,-45.668829 z"
            id="path817-3-00-24-5-8"
            inkscape:label="Track3"/>
          <path
            inkscape:connector-curvature="0"
            style="color:#000000;font-style:normal;font-variant:normal;font-weight:normal;font-stretch:normal;font-size:medium;line-height:normal;font-family:sans-serif;font-variant-ligatures:normal;font-variant-position:normal;font-variant-caps:normal;font-variant-numeric:normal;font-variant-alternates:normal;font-feature-settings:normal;text-indent:0;text-align:start;text-decoration:none;text-decoration-line:none;text-decoration-style:solid;text-decoration-color:#000000;letter-spacing:normal;word-spacing:normal;text-transform:none;writing-mode:lr-tb;direction:ltr;text-orientation:mixed;dominant-baseline:auto;baseline-shift:baseline;text-anchor:start;white-space:normal;shape-padding:0;clip-rule:nonzero;display:inline;overflow:visible;visibility:visible;opacity:1;isolation:auto;mix-blend-mode:normal;color-interpolation:sRGB;color-interpolation-filters:linearRGB;solid-color:#000000;solid-opacity:1;vector-effect:none;fill:url(#linearGradient7768);fill-opacity:1;fill-rule:nonzero;stroke:none;stroke-width:0.55461627;stroke-linecap:round;stroke-linejoin:miter;stroke-miterlimit:4;stroke-dasharray:none;stroke-dashoffset:0;stroke-opacity:1;color-rendering:auto;image-rendering:auto;shape-rendering:auto;text-rendering:auto;enable-background:accumulate"
            d="m 105.70517,65.143521 c -24.794902,0 -44.901436,20.106539 -44.901436,44.901439 0,24.7949 20.106534,44.90145 44.901436,44.90145 24.7949,0 44.90145,-20.10655 44.90145,-44.90145 0,-24.7949 -20.10655,-44.901439 -44.90145,-44.901439 z m 0,0.555176 c 24.49517,0 44.34627,19.851099 44.34627,44.346263 0,24.49517 -19.8511,44.34627 -44.34627,44.34627 -24.495161,0 -44.34626,-19.8511 -44.34626,-44.34627 0,-24.495164 19.851099,-44.346263 44.34626,-44.346263 z m 0,0.770458 c -24.062948,0 -43.575802,19.512858 -43.575802,43.575805 0,24.06294 19.512854,43.57581 43.575802,43.57581 24.06296,0 43.57582,-19.51287 43.57582,-43.57581 0,-24.062947 -19.51287,-43.575805 -43.57582,-43.575805 z m 0,0.538518 c 23.77207,0 43.03697,19.265229 43.03697,43.037287 0,23.77206 -19.26489,43.03697 -43.03697,43.03697 -23.772053,0 -43.037284,-19.26491 -43.037284,-43.03697 0,-23.772058 19.265231,-43.037287 43.037284,-43.037287 z m 0,0.82844 c -23.307994,0 -42.208838,18.900856 -42.208838,42.208847 0,23.30799 18.900844,42.20853 42.208838,42.20853 23.30799,0 42.20854,-18.90054 42.20854,-42.20853 0,-23.307991 -18.90055,-42.208847 -42.20854,-42.208847 z m 0,0.521861 c 23.02624,0 41.68667,18.660755 41.68667,41.686986 0,23.02623 -18.66043,41.687 -41.68667,41.687 -23.026225,0 -41.686978,-18.66077 -41.686978,-41.687 0,-23.026231 18.660753,-41.686986 41.686978,-41.686986 z m 0,0.927751 c -22.507544,0 -40.759232,18.251686 -40.759232,40.759235 0,22.50754 18.251688,40.75924 40.759232,40.75924 22.50755,0 40.75924,-18.2517 40.75924,-40.75924 0,-22.507549 -18.25169,-40.759235 -40.75924,-40.759235 z m 0,0.503921 c 22.23547,0 40.25532,18.01985 40.25532,40.255314 0,22.23546 -18.01985,40.25532 -40.25532,40.25532 -22.235458,0 -40.255312,-18.01986 -40.255312,-40.25532 0,-22.235464 18.019854,-40.255314 40.255312,-40.255314 z m 0,0.821713 c -21.77559,0 -39.433592,17.658007 -39.433592,39.433601 0,21.7756 17.658002,39.4336 39.433592,39.4336 21.7756,0 39.43361,-17.658 39.43361,-39.4336 0,-21.775594 -17.65801,-39.433601 -39.43361,-39.433601 z m 0,0.487582 c 21.51236,0 38.94603,17.433659 38.94603,38.946019 0,21.51236 -17.43367,38.94603 -38.94603,38.94603 -21.512357,0 -38.946336,-17.43367 -38.946336,-38.94603 0,-21.51236 17.433979,-38.946019 38.946336,-38.946019 z"
            id="path817-3-00-6-5-4"
            inkscape:label="Track2"/>
          <path
            inkscape:connector-curvature="0"
            style="color:#000000;font-style:normal;font-variant:normal;font-weight:normal;font-stretch:normal;font-size:medium;line-height:normal;font-family:sans-serif;font-variant-ligatures:normal;font-variant-position:normal;font-variant-caps:normal;font-variant-numeric:normal;font-variant-alternates:normal;font-feature-settings:normal;text-indent:0;text-align:start;text-decoration:none;text-decoration-line:none;text-decoration-style:solid;text-decoration-color:#000000;letter-spacing:normal;word-spacing:normal;text-transform:none;writing-mode:lr-tb;direction:ltr;text-orientation:mixed;dominant-baseline:auto;baseline-shift:baseline;text-anchor:start;white-space:normal;shape-padding:0;clip-rule:nonzero;display:inline;overflow:visible;visibility:visible;opacity:1;isolation:auto;mix-blend-mode:normal;color-interpolation:sRGB;color-interpolation-filters:linearRGB;solid-color:#000000;solid-opacity:1;vector-effect:none;fill:url(#linearGradient7770);fill-opacity:1;fill-rule:nonzero;stroke:none;stroke-width:0.4720844;stroke-linecap:round;stroke-linejoin:miter;stroke-miterlimit:4;stroke-dasharray:none;stroke-dashoffset:0;stroke-opacity:1;color-rendering:auto;image-rendering:auto;shape-rendering:auto;text-rendering:auto;enable-background:accumulate"
            d="m 105.70517,71.825259 c -21.105197,0 -38.219698,17.114505 -38.219698,38.219701 0,21.1052 17.114501,38.21971 38.219698,38.21971 21.1052,0 38.21971,-17.11451 38.21971,-38.21971 0,-21.105196 -17.11451,-38.219701 -38.21971,-38.219701 z m 0,0.472561 c 20.85007,0 37.74715,16.897077 37.74715,37.74714 0,20.85007 -16.89708,37.74715 -37.74715,37.74715 -20.85006,0 -37.747138,-16.89708 -37.747138,-37.74715 0,-20.850063 16.897078,-37.74714 37.747138,-37.74714 z m 0,0.655806 c -20.482164,0 -37.091331,16.60917 -37.091331,37.091334 0,20.48216 16.609167,37.09134 37.091331,37.09134 20.48218,0 37.09134,-16.60918 37.09134,-37.09134 0,-20.482164 -16.60917,-37.091334 -37.09134,-37.091334 z m 0,0.458382 c 20.23458,0 36.63269,16.39839 36.63269,36.632952 0,20.23456 -16.39811,36.63269 -36.63269,36.63269 -20.234557,0 -36.632949,-16.39813 -36.632949,-36.63269 0,-20.234562 16.398392,-36.632952 36.632949,-36.632952 z m 0,0.705161 c -19.839555,0 -35.927784,16.088239 -35.927784,35.927791 0,19.83955 16.088229,35.92753 35.927784,35.92753 19.83956,0 35.92753,-16.08798 35.92753,-35.92753 0,-19.839552 -16.08797,-35.927791 -35.92753,-35.927791 z m 0,0.444203 c 19.59973,0 35.48332,15.883868 35.48332,35.483588 0,19.59972 -15.88359,35.4836 -35.48332,35.4836 -19.599715,0 -35.48358,-15.88388 -35.48358,-35.4836 0,-19.59972 15.883865,-35.483588 35.48358,-35.483588 z m 0,0.789694 c -19.158219,0 -34.693892,15.535671 -34.693892,34.693894 0,19.15822 15.535673,34.6939 34.693892,34.6939 19.15823,0 34.6939,-15.53568 34.6939,-34.6939 0,-19.158223 -15.53567,-34.693894 -34.6939,-34.693894 z m 0,0.428933 c 18.92663,0 34.26497,15.338334 34.26497,34.264961 0,18.92662 -15.33834,34.26497 -34.26497,34.26497 -18.926622,0 -34.264959,-15.33835 -34.264959,-34.26497 0,-18.926627 15.338337,-34.264961 34.264959,-34.264961 z m 0,0.699434 c -18.535186,0 -33.565519,15.030337 -33.565519,33.565527 0,18.53519 15.030333,33.56553 33.565519,33.56553 18.5352,0 33.56554,-15.03034 33.56554,-33.56553 0,-18.53519 -15.03034,-33.565527 -33.56554,-33.565527 z m 0,0.415026 c 18.31113,0 33.15051,14.839374 33.15051,33.150501 0,18.31113 -14.83938,33.15051 -33.15051,33.15051 -18.311124,0 -33.150771,-14.83938 -33.150771,-33.15051 0,-18.311127 14.839647,-33.150501 33.150771,-33.150501 z"
            id="path817-3-00-3-0-7"
            inkscape:label="Track1"/>
        </g>
        <circle
          inkscape:export-ydpi="85.171089"
          inkscape:export-xdpi="85.171089"
          clip-path="none"
          cy="79.621063"
          cx="68.467094"
          id="path817-3-5-7"
          style="display:inline;fill:url(#linearGradient8139);fill-opacity:1;stroke:none;stroke-width:0.15521127;stroke-linecap:round;stroke-miterlimit:4;stroke-dasharray:none;stroke-opacity:1"
          r="73.632767"
          inkscape:label="GlareEffect"/>
        <ellipse
          ry="32.81163"
          rx="32.7994"
          inkscape:export-ydpi="85.171089"
          inkscape:export-xdpi="85.171089"
          cy="79.621063"
          cx="68.467094"
          id="path817-5-1-0-4"
          style="display:inline;fill:url(#linearGradient7801);fill-opacity:1;stroke:none;stroke-width:0.06915107;stroke-linecap:round;stroke-miterlimit:4;stroke-dasharray:none;stroke-opacity:1"
          inkscape:label="Label"/>
        <circle
          inkscape:export-ydpi="85.171089"
          inkscape:export-xdpi="85.171089"
          r="4.3467259"
          cy="79.621063"
          cx="68.467094"
          id="hole"
          style="display:inline;opacity:1;fill:#000000;fill-opacity:1;stroke:none;stroke-width:0.68394738;stroke-miterlimit:4;stroke-dasharray:none;stroke-opacity:1"
          inkscape:label="CenterHole"/>
      </g>
    </g>
  </g>
</svg>
